<mxGraphModel><root><mxCell id="0"/><mxCell id="1" parent="0"/><mxCell id="2" value="Control Loop" style="whiteSpace=wrap;strokeWidth=2;verticalAlign=top;" vertex="1" parent="1"><mxGeometry x="357" y="8" width="244" height="620" as="geometry"/></mxCell><mxCell id="3" value="Read" style="whiteSpace=wrap;strokeWidth=2;" vertex="1" parent="2"><mxGeometry x="101" y="46" width="95" height="49" as="geometry"/></mxCell><mxCell id="4" value="Process" style="whiteSpace=wrap;strokeWidth=2;" vertex="1" parent="2"><mxGeometry x="45" y="170" width="113" height="49" as="geometry"/></mxCell><mxCell id="5" value="Control" style="whiteSpace=wrap;strokeWidth=2;" vertex="1" parent="2"><mxGeometry x="45" y="294" width="113" height="49" as="geometry"/></mxCell><mxCell id="6" value="Actuate" style="whiteSpace=wrap;strokeWidth=2;" vertex="1" parent="2"><mxGeometry x="43" y="418" width="117" height="49" as="geometry"/></mxCell><mxCell id="7" value="Monitor" style="whiteSpace=wrap;strokeWidth=2;" vertex="1" parent="2"><mxGeometry x="90" y="542" width="116" height="49" as="geometry"/></mxCell><mxCell id="8" value="" style="curved=1;startArrow=none;endArrow=block;exitX=0.3;exitY=0.99;entryX=0.5;entryY=-0.01;" edge="1" parent="2" source="3" target="4"><mxGeometry relative="1" as="geometry"><Array as="points"><mxPoint x="102" y="132"/></Array></mxGeometry></mxCell><mxCell id="9" value="" style="curved=1;startArrow=none;endArrow=block;exitX=0.5;exitY=0.99;entryX=0.5;entryY=-0.01;" edge="1" parent="2" source="4" target="5"><mxGeometry relative="1" as="geometry"><Array as="points"/></mxGeometry></mxCell><mxCell id="10" value="" style="curved=1;startArrow=none;endArrow=block;exitX=0.5;exitY=0.99;entryX=0.5;entryY=-0.01;" edge="1" parent="2" source="5" target="6"><mxGeometry relative="1" as="geometry"><Array as="points"/></mxGeometry></mxCell><mxCell id="11" value="" style="curved=1;startArrow=none;endArrow=block;exitX=0.5;exitY=0.99;entryX=0.34;entryY=-0.01;" edge="1" parent="2" source="6" target="7"><mxGeometry relative="1" as="geometry"><Array as="points"><mxPoint x="102" y="504"/></Array></mxGeometry></mxCell><mxCell id="12" value="" style="curved=1;startArrow=none;endArrow=block;exitX=0.66;exitY=-0.01;entryX=0.69;entryY=0.99;" edge="1" parent="2" source="7" target="3"><mxGeometry relative="1" as="geometry"><Array as="points"><mxPoint x="195" y="504"/><mxPoint x="195" y="132"/></Array></mxGeometry></mxCell><mxCell id="13" value="System Initialization" style="whiteSpace=wrap;strokeWidth=2;verticalAlign=top;" vertex="1" parent="1"><mxGeometry x="8" y="678" width="942" height="248" as="geometry"/></mxCell><mxCell id="14" value="GPIO" style="whiteSpace=wrap;strokeWidth=2;" vertex="1" parent="13"><mxGeometry x="43" y="46" width="95" height="49" as="geometry"/></mxCell><mxCell id="15" value="Initialize" style="whiteSpace=wrap;strokeWidth=2;" vertex="1" parent="13"><mxGeometry x="388" y="170" width="123" height="49" as="geometry"/></mxCell><mxCell id="16" value="Timer" style="whiteSpace=wrap;strokeWidth=2;" vertex="1" parent="13"><mxGeometry x="188" y="46" width="103" height="49" as="geometry"/></mxCell><mxCell id="17" value="SPI" style="whiteSpace=wrap;strokeWidth=2;" vertex="1" parent="13"><mxGeometry x="341" y="46" width="81" height="49" as="geometry"/></mxCell><mxCell id="18" value="ADC" style="whiteSpace=wrap;strokeWidth=2;" vertex="1" parent="13"><mxGeometry x="472" y="46" width="90" height="49" as="geometry"/></mxCell><mxCell id="19" value="CAN" style="whiteSpace=wrap;strokeWidth=2;" vertex="1" parent="13"><mxGeometry x="613" y="46" width="89" height="49" as="geometry"/></mxCell><mxCell id="20" value="Motor_Control" style="whiteSpace=wrap;strokeWidth=2;" vertex="1" parent="13"><mxGeometry x="752" y="46" width="164" height="49" as="geometry"/></mxCell><mxCell id="21" value="" style="curved=1;startArrow=none;endArrow=block;exitX=0.5;exitY=0.99;entryX=0;entryY=0.27;" edge="1" parent="13" source="14" target="15"><mxGeometry relative="1" as="geometry"><Array as="points"><mxPoint x="91" y="132"/></Array></mxGeometry></mxCell><mxCell id="22" value="" style="curved=1;startArrow=none;endArrow=block;exitX=0.5;exitY=0.99;entryX=0;entryY=0.12;" edge="1" parent="13" source="16" target="15"><mxGeometry relative="1" as="geometry"><Array as="points"><mxPoint x="240" y="132"/></Array></mxGeometry></mxCell><mxCell id="23" value="" style="curved=1;startArrow=none;endArrow=block;exitX=0.51;exitY=0.99;entryX=0.28;entryY=-0.01;" edge="1" parent="13" source="17" target="15"><mxGeometry relative="1" as="geometry"><Array as="points"><mxPoint x="382" y="132"/></Array></mxGeometry></mxCell><mxCell id="24" value="" style="curved=1;startArrow=none;endArrow=block;exitX=0.51;exitY=0.99;entryX=0.72;entryY=-0.01;" edge="1" parent="13" source="18" target="15"><mxGeometry relative="1" as="geometry"><Array as="points"><mxPoint x="518" y="132"/></Array></mxGeometry></mxCell><mxCell id="25" value="" style="curved=1;startArrow=none;endArrow=block;exitX=0.5;exitY=0.99;entryX=1;entryY=0.12;" edge="1" parent="13" source="19" target="15"><mxGeometry relative="1" as="geometry"><Array as="points"><mxPoint x="657" y="132"/></Array></mxGeometry></mxCell><mxCell id="26" value="" style="curved=1;startArrow=none;endArrow=block;exitX=0.5;exitY=0.99;entryX=1;entryY=0.29;" edge="1" parent="13" source="20" target="15"><mxGeometry relative="1" as="geometry"><Array as="points"><mxPoint x="834" y="132"/></Array></mxGeometry></mxCell></root></mxGraphModel>